<?xml version="1.0" encoding="utf-8"?>
<!-- Generator: Adobe Illustrator 17.0.0, SVG Export Plug-In . SVG Version: 6.00 Build 0)  -->
<!DOCTYPE svg PUBLIC "-//W3C//DTD SVG 1.1//EN" "http://www.w3.org/Graphics/SVG/1.1/DTD/svg11.dtd">
<svg version="1.1" id="Layer_1" xmlns="http://www.w3.org/2000/svg" xmlns:xlink="http://www.w3.org/1999/xlink" x="0px" y="0px"
	 width="572.813px" height="588.8px" viewBox="0 0 572.813 588.8" enable-background="new 0 0 572.813 588.8" xml:space="preserve">
<title>74 all</title>
<path fill="#BD3131" d="M522.24,89.6h-51.2V64c0-35.2-28.8-64-64-64H64C28.8,0,0,28.8,0,64v441.6c0,46.08,37.12,83.2,83.2,83.2
	h419.2c39.04,0,70.4-31.36,70.4-70.4V140.8C573.44,112.64,550.4,89.6,522.24,89.6z M83.2,550.4c-24.96,0-44.8-19.84-44.8-44.8V64
	c0-14.08,11.52-25.6,25.6-25.6h342.4c14.08,0,25.6,11.52,25.6,25.6v454.4c0,10.88,2.56,22.4,7.68,32H83.2z M535.04,518.4
	c0,17.92-14.08,32-32,32c-17.92,0-32-14.08-32-32V128h51.2c7.04,0,12.8,5.76,12.8,12.8V518.4z"/>
<path fill="#BD3131" d="M89.6,292.48h160c10.88,0,19.2-8.32,19.2-19.2V110.72c0-10.88-8.32-19.2-19.2-19.2h-160
	c-10.88,0-19.2,8.32-19.2,19.2v161.92C70.4,283.52,79.36,292.48,89.6,292.48z M108.8,129.92h121.6v123.52H108.8V129.92z"/>
<path fill="#BD3131" d="M382.72,426.88h-288c-10.88,0-19.2,8.32-19.2,19.2s8.32,19.2,19.2,19.2h288c10.88,0,19.2-8.32,19.2-19.2
	S393.6,426.88,382.72,426.88z"/>
<path fill="#BD3131" d="M382.72,343.68h-288c-10.88,0-19.2,8.32-19.2,19.2s8.32,19.2,19.2,19.2h288c10.88,0,19.2-8.32,19.2-19.2
	S393.6,343.68,382.72,343.68z"/>
<path fill="#BD3131" d="M382.72,172.8H307.2c-10.88,0-19.2,8.32-19.2,19.2s8.32,19.2,19.2,19.2h75.52c10.88,0,19.2-8.32,19.2-19.2
	S393.6,172.8,382.72,172.8z"/>
<path fill="#BD3131" d="M382.72,256H307.2c-10.88,0-19.2,8.32-19.2,19.2s8.32,19.2,19.2,19.2h75.52c10.88,0,19.2-8.32,19.2-19.2
	S393.6,256,382.72,256z"/>
<path fill="#BD3131" d="M382.72,96H307.2c-10.88,0-19.2,8.32-19.2,19.2s8.32,19.2,19.2,19.2h75.52c10.88,0,19.2-8.32,19.2-19.2
	S393.6,96,382.72,96z"/>
</svg>
