<?xml version="1.0" encoding="utf-8"?>
<!-- Generator: Adobe Illustrator 17.0.0, SVG Export Plug-In . SVG Version: 6.00 Build 0)  -->
<!DOCTYPE svg PUBLIC "-//W3C//DTD SVG 1.1//EN" "http://www.w3.org/Graphics/SVG/1.1/DTD/svg11.dtd">
<svg version="1.1" id="Capa_1" xmlns="http://www.w3.org/2000/svg" xmlns:xlink="http://www.w3.org/1999/xlink" x="0px" y="0px"
	 width="22px" height="20px" viewBox="0 0 22 20" enable-background="new 0 0 22 20" xml:space="preserve">
<title>Group 5</title>
<desc>Created with Sketch.</desc>
<g id="Symbols">
	<g id="GalleryICon" transform="translate(-17.000000, -18.000000)">
		<g id="Group-6">
			<g id="Group-5" transform="translate(17.000000, 18.000000)">
				<path id="Rectangle-4" fill="none" stroke="#BD3131" stroke-width="1.5" d="M13.75,0.75h6.5c0.552,0,1,0.448,1,1v5.5
					c0,0.552-0.448,1-1,1h-6.5c-0.552,0-1-0.448-1-1v-5.5C12.75,1.198,13.198,0.75,13.75,0.75z"/>
				<path id="Rectangle-4_1_" fill="none" stroke="#BD3131" stroke-width="1.5" d="M1.75,0.75h6.5c0.552,0,1,0.448,1,1v5.5
					c0,0.552-0.448,1-1,1h-6.5c-0.552,0-1-0.448-1-1v-5.5C0.75,1.198,1.198,0.75,1.75,0.75z"/>
				<path id="Rectangle-4_2_" fill="none" stroke="#BD3131" stroke-width="1.5" d="M1.75,11.75h6.5c0.552,0,1,0.448,1,1v5.5
					c0,0.552-0.448,1-1,1h-6.5c-0.552,0-1-0.448-1-1v-5.5C0.75,12.198,1.198,11.75,1.75,11.75z"/>
				<path id="Rectangle-4_3_" fill="none" stroke="#BD3131" stroke-width="1.5" d="M13.75,11.75h6.5c0.552,0,1,0.448,1,1v5.5
					c0,0.552-0.448,1-1,1h-6.5c-0.552,0-1-0.448-1-1v-5.5C12.75,12.198,13.198,11.75,13.75,11.75z"/>
			</g>
		</g>
	</g>
</g>
</svg>
