<?xml version="1.0" encoding="utf-8"?>
<!-- Generator: Adobe Illustrator 17.0.0, SVG Export Plug-In . SVG Version: 6.00 Build 0)  -->
<!DOCTYPE svg PUBLIC "-//W3C//DTD SVG 1.1//EN" "http://www.w3.org/Graphics/SVG/1.1/DTD/svg11.dtd">
<svg version="1.1" id="Layer_1" xmlns="http://www.w3.org/2000/svg" xmlns:xlink="http://www.w3.org/1999/xlink" x="0px" y="0px"
	 width="386.22px" height="384px" viewBox="0 0 386.22 384" enable-background="new 0 0 386.22 384" xml:space="preserve">
<path fill="#BD3131" d="M379.67,3.84C377.75,1.28,374.55,0,371.35,0H14.23c-3.2,0-6.4,1.28-8.32,3.84s-3.2,5.12-3.2,8.32
	l30.08,337.92C34.71,369.28,50.07,384,69.91,384h246.4c19.2,0,35.2-14.72,37.12-33.92l30.08-337.92
	C382.87,8.96,381.59,5.76,379.67,3.84z M39.83,177.92h18.56v42.24c0,21.12,17.28,38.4,38.4,38.4h71.04
	c17.92,0,33.28-12.16,37.12-28.8l13.44,5.12c4.48,1.28,8.96,2.56,12.8,2.56c5.76,0,11.52-1.28,16.64-3.84
	c9.6-4.48,16.64-12.16,19.84-21.76l12.16-33.28h19.84l-4.48,56.96c-0.64,6.4,3.84,11.52,10.24,12.16h0.64
	c5.76,0,10.88-4.48,10.88-10.24l5.12-60.16h23.04l-8.32,96.64h-288L39.83,177.92z M271.51,136.32l-7.04,19.2h-57.6v-7.04
	c0-20.48-16-37.12-36.48-38.4l3.2-8.96c1.28-3.84,4.48-7.68,8.32-8.96c3.84-1.92,8.32-1.92,12.16-0.64l67.2,23.68
	c3.84,1.28,7.68,4.48,8.96,8.32C272.79,128,272.79,131.84,271.51,136.32z M206.87,177.92h49.92l-8.96,25.6
	c-1.28,3.84-4.48,7.68-8.32,8.96c-3.84,1.92-8.32,1.92-12.16,0.64l-19.84-7.04L206.87,177.92L206.87,177.92z M167.83,132.48
	c8.96,0,16,7.04,16,16v7.04H80.15v-7.04c0-8.96,7.04-16,16-16H167.83z M184.47,177.92v42.24c0,8.96-7.04,16-16,16H96.79
	c-8.96,0-16-7.04-16-16v-42.24H184.47z M359.19,22.4l-11.52,133.12h-23.68l7.04-83.84c0.64-6.4-3.84-11.52-10.24-12.16
	c-6.4-0.64-11.52,3.84-12.16,10.24l-7.04,85.76h-13.44l3.84-11.52c3.2-9.6,3.2-20.48-1.28-29.44c-4.48-9.6-12.16-16.64-21.76-19.84
	l-67.2-24.32c-9.6-3.2-20.48-3.2-29.44,1.28c-9.6,4.48-16.64,12.16-19.84,21.76l-5.76,16H96.79c-21.12,0-38.4,17.28-38.4,38.4v7.04
	H38.55L26.39,22.4H359.19z M315.67,361.6H69.91c-7.68,0-14.08-5.76-14.72-13.44l-4.48-51.2h284.8l-4.48,51.2
	C329.75,355.84,323.35,361.6,315.67,361.6z"/>
</svg>
