<?xml version="1.0" encoding="utf-8"?>
<!-- Generator: Adobe Illustrator 17.0.0, SVG Export Plug-In . SVG Version: 6.00 Build 0)  -->
<!DOCTYPE svg PUBLIC "-//W3C//DTD SVG 1.1//EN" "http://www.w3.org/Graphics/SVG/1.1/DTD/svg11.dtd">
<svg version="1.1" id="Capa_1" xmlns="http://www.w3.org/2000/svg" xmlns:xlink="http://www.w3.org/1999/xlink" x="0px" y="0px"
	 width="86px" height="35px" viewBox="0 0 86 35" enable-background="new 0 0 86 35" xml:space="preserve">
<g>
	<path fill="#B5A484" d="M22.153,21.995v-9.994h1.634v8.593h4.231v1.401H22.153z"/>
	<path fill="#B5A484" d="M40.854,16.984c0,1.627-0.407,2.892-1.22,3.794s-1.965,1.354-3.456,1.354c-1.508,0-2.667-0.448-3.476-1.343
		c-0.809-0.896-1.213-2.168-1.213-3.818s0.407-2.917,1.22-3.801s1.975-1.326,3.483-1.326c1.486,0,2.634,0.449,3.445,1.347
		S40.854,15.353,40.854,16.984z M33.225,16.984c0,1.23,0.249,2.164,0.745,2.799s1.233,0.954,2.208,0.954
		c0.971,0,1.703-0.314,2.198-0.943s0.742-1.565,0.742-2.81c0-1.226-0.245-2.156-0.735-2.789s-1.22-0.95-2.191-0.95
		c-0.98,0-1.719,0.317-2.218,0.95S33.225,15.758,33.225,16.984z"/>
	<path fill="#B5A484" d="M49.328,16.574h3.678v5.018c-0.602,0.195-1.179,0.335-1.733,0.417s-1.152,0.123-1.794,0.123
		c-1.513,0-2.68-0.448-3.5-1.343c-0.82-0.896-1.23-2.159-1.23-3.791c0-1.609,0.462-2.868,1.388-3.777s2.199-1.364,3.821-1.364
		c1.043,0,2.033,0.201,2.967,0.602l-0.574,1.36c-0.811-0.374-1.623-0.561-2.434-0.561c-1.066,0-1.91,0.335-2.529,1.005
		s-0.93,1.586-0.93,2.748c0,1.221,0.279,2.15,0.837,2.786s1.361,0.954,2.41,0.954c0.529,0,1.094-0.066,1.695-0.198v-2.577h-2.071
		V16.574z"/>
	<path fill="#B5A484" d="M66.519,16.984c0,1.627-0.407,2.892-1.22,3.794c-0.814,0.902-1.966,1.354-3.456,1.354
		c-1.509,0-2.667-0.448-3.476-1.343c-0.81-0.896-1.214-2.168-1.214-3.818s0.407-2.917,1.22-3.801
		c0.814-0.884,1.975-1.326,3.483-1.326c1.485,0,2.634,0.449,3.445,1.347S66.519,15.353,66.519,16.984z M58.89,16.984
		c0,1.23,0.248,2.164,0.745,2.799s1.232,0.954,2.208,0.954c0.971,0,1.703-0.314,2.198-0.943c0.494-0.629,0.741-1.565,0.741-2.81
		c0-1.226-0.245-2.156-0.735-2.789c-0.489-0.633-1.22-0.95-2.19-0.95c-0.979,0-1.72,0.317-2.218,0.95
		C59.139,14.829,58.89,15.758,58.89,16.984z"/>
</g>
<path fill="#B5A484" d="M84,2v31H2V2H84 M86,0H0v35h86V0L86,0z"/>
</svg>
