<?xml version="1.0" encoding="utf-8"?>
<!-- Generator: Adobe Illustrator 17.0.0, SVG Export Plug-In . SVG Version: 6.00 Build 0)  -->
<!DOCTYPE svg PUBLIC "-//W3C//DTD SVG 1.1//EN" "http://www.w3.org/Graphics/SVG/1.1/DTD/svg11.dtd">
<svg version="1.1"
	 id="Layer_1" xmlns:dc="http://purl.org/dc/elements/1.1/" xmlns:inkscape="http://www.inkscape.org/namespaces/inkscape" xmlns:rdf="http://www.w3.org/1999/02/22-rdf-syntax-ns#" xmlns:svg="http://www.w3.org/2000/svg" xmlns:sodipodi="http://sodipodi.sourceforge.net/DTD/sodipodi-0.dtd" xmlns:cc="http://creativecommons.org/ns#"
	 xmlns="http://www.w3.org/2000/svg" xmlns:xlink="http://www.w3.org/1999/xlink" x="0px" y="0px" width="698.254px"
	 height="618.454px" viewBox="0 0 698.254 618.454" enable-background="new 0 0 698.254 618.454" xml:space="preserve">
<g transform="translate(0,-952.36218)">
	<path fill="#BD3131" d="M373.068,1570.817h115.711c15.96,0,29.925-13.965,29.925-29.925v-32.918l142.643,31.92
		c16.958,3.99,35.91-10.972,36.908-28.928v-239.401c-1.995-23.94-20.948-32.918-36.908-28.928l-142.643,30.922v-31.92
		c0-15.96-13.965-29.925-29.925-29.925h-17.955c29.925-26.933,47.88-66.833,47.88-109.726c0-82.793-67.83-149.626-149.626-149.626
		c-60.848,0-113.716,37.905-137.656,90.773c-23.94-30.922-60.848-50.873-101.746-50.873c-70.823,0-129.676,58.853-129.676,129.676
		c0,34.913,13.965,66.833,36.908,89.776h-6.983c-16.958,0-29.925,16.958-29.925,29.925v299.252c0,15.96,13.965,29.925,29.925,29.925
		H147.63 M369.078,1012.213c49.875,0,89.776,39.9,89.776,89.776c0,49.875-39.9,89.776-89.776,89.776s-89.776-39.9-89.776-89.776
		C279.303,1052.114,319.203,1012.213,369.078,1012.213z M129.677,1052.114c38.903,0,69.825,30.922,69.825,69.825
		s-30.923,69.825-69.825,69.825s-69.825-30.922-69.825-69.825S90.774,1052.114,129.677,1052.114z M243.392,1183.784
		c6.983,9.975,14.963,19.95,23.94,27.93h-44.888C231.422,1202.737,238.405,1193.759,243.392,1183.784z M59.851,1271.565h399.003
		v239.401H59.851V1271.565z M638.405,1308.472v164.589l-119.701-26.933v-111.721L638.405,1308.472z M221.447,1570.817h75.81H221.447
		z"/>
</g>
</svg>
